<svg viewBox="0 0 12 12" width="60px" height="60px" xmlns="http://www.w3.org/2000/svg"><path fill-rule="evenodd" d="M 2,0 9,0 9,1 11,1 11,11 8,11 8,9 3,9 3,11 0,11 0,1 2,1z" fill="#E76A6E"/><path fill-rule="evenodd" d="M 3,1 8,1 8,2 3,2z" fill="#ffffff"/><path fill-rule="evenodd" d="M 1,2 2,2 2,3 1,3z" fill="#ffffff"/><path fill-rule="evenodd" d="M 9,2 10,2 10,3 9,3z" fill="#ffffff"/><path fill-rule="evenodd" d="M 3,3 4,3 4,4 3,4z" fill="#ffffff"/><path fill-rule="evenodd" d="M 7,3 8,3 8,4 7,4z" fill="#ffffff"/><path fill-rule="evenodd" d="M 5,4 6,4 6,5 5,5z" fill="#ffffff"/><path fill-rule="evenodd" d="M 1,5 2,5 2,6 5,6 5,8 3,8 3,7 1,7z" fill="#ffffff"/><path fill-rule="evenodd" d="M 9,5 10,5 10,7 8,7 8,8 6,8 6,6 9,6z" fill="#ffffff"/><path fill-rule="evenodd" d="M 1,9 2,9 2,10 1,10z" fill="#ffffff"/><path fill-rule="evenodd" d="M 9,9 10,9 10,10 9,10z" fill="#ffffff"/></svg>